<svg width="365" height="134" viewBox="0 0 365 134" fill="none" xmlns="http://www.w3.org/2000/svg">
<path d="M49.8963 73.0359V132.69H71.3344L72.2665 74.434H110.948L119.337 72.1038L126.328 68.3755L133.318 62.3169L139.377 53.462L142.173 44.1411V32.956L139.843 24.1011C139.066 22.703 136.581 18.5086 132.852 12.916C129.124 7.32348 116.385 2.81838 110.482 1.26489H46.168C46.168 2.66303 46.3544 6.01856 47.1001 8.25558C48.0322 11.0518 49.8963 13.3821 52.6926 16.6444C54.9296 19.2542 61.7028 21.7709 64.8098 22.703H107.22C114.677 22.703 120.735 30.1597 120.269 39.9467C119.896 47.7762 111.414 51.9085 107.22 52.9959H72.2665C55.8617 52.9959 50.5177 66.3559 49.8963 73.0359Z" fill="#8A7EBE"/>
<path d="M37.6744 1.58978C37.8765 1.04368 38.6488 1.04368 38.8509 1.58979L48.4969 27.6578C48.5605 27.8295 48.6958 27.9648 48.8675 28.0284L74.9355 37.6744C75.4816 37.8765 75.4816 38.6488 74.9355 38.8509L48.8675 48.4969C48.6958 48.5605 48.5605 48.6958 48.4969 48.8675L38.8509 74.9355C38.6488 75.4816 37.8764 75.4816 37.6744 74.9355L28.0284 48.8675C27.9648 48.6958 27.8295 48.5605 27.6578 48.4969L1.58978 38.8509C1.04368 38.6488 1.04368 37.8764 1.58979 37.6744L27.6578 28.0284C27.8295 27.9648 27.9648 27.8295 28.0284 27.6578L37.6744 1.58978Z" fill="#F8B55F"/>
<path d="M102.372 133.865C98.7407 133.865 95.4838 133.288 92.6016 132.135C89.7193 130.954 87.2695 129.325 85.2519 127.25C83.2632 125.175 81.7356 122.768 80.6692 120.03C79.6028 117.263 79.0696 114.323 79.0696 111.21V109.481C79.0696 105.936 79.5739 102.694 80.5827 99.7536C81.5915 96.8138 83.0326 94.263 84.906 92.1014C86.8083 89.9397 89.1141 88.2824 91.8234 87.1295C94.5326 85.9478 97.5878 85.357 100.989 85.357C104.303 85.357 107.243 85.9046 109.808 86.9998C112.374 88.0951 114.521 89.6515 116.25 91.669C118.008 93.6866 119.334 96.1076 120.228 98.9322C121.121 101.728 121.568 104.841 121.568 108.271V113.459H84.3872V105.158H109.333V104.207C109.333 102.477 109.016 100.935 108.382 99.5807C107.776 98.1972 106.854 97.102 105.615 96.295C104.375 95.488 102.79 95.0845 100.859 95.0845C99.2162 95.0845 97.804 95.4447 96.6223 96.1653C95.4405 96.8858 94.475 97.8946 93.7256 99.1916C93.0051 100.489 92.4575 102.016 92.0828 103.774C91.7369 105.504 91.564 107.406 91.564 109.481V111.21C91.564 113.084 91.8234 114.813 92.3422 116.398C92.8898 117.984 93.6536 119.353 94.6335 120.506C95.6423 121.658 96.8528 122.552 98.2651 123.186C99.7062 123.82 101.335 124.137 103.15 124.137C105.399 124.137 107.488 123.705 109.419 122.84C111.379 121.947 113.065 120.606 114.478 118.819L120.53 125.391C119.55 126.803 118.21 128.158 116.51 129.455C114.838 130.752 112.82 131.818 110.457 132.654C108.093 133.461 105.399 133.865 102.372 133.865ZM141.109 96.4247V133H128.658V86.2216H140.374L141.109 96.4247ZM155.203 85.919L154.987 97.4623C154.382 97.3758 153.647 97.3038 152.782 97.2461C151.946 97.1596 151.183 97.1164 150.491 97.1164C148.733 97.1164 147.205 97.347 145.908 97.8081C144.64 98.2405 143.574 98.889 142.709 99.7536C141.873 100.618 141.239 101.67 140.807 102.91C140.403 104.149 140.173 105.561 140.115 107.147L137.607 106.368C137.607 103.342 137.91 100.561 138.515 98.0243C139.121 95.4591 140 93.2254 141.152 91.3232C142.334 89.4209 143.775 87.951 145.476 86.9134C147.176 85.8758 149.122 85.357 151.312 85.357C152.004 85.357 152.71 85.4146 153.431 85.5299C154.151 85.6164 154.742 85.7461 155.203 85.919ZM184.861 122.451V101.613C184.861 100.114 184.616 98.8313 184.126 97.7649C183.636 96.6697 182.873 95.8194 181.835 95.2141C180.826 94.6089 179.515 94.3063 177.901 94.3063C176.517 94.3063 175.321 94.5512 174.312 95.0412C173.304 95.5024 172.525 96.1797 171.978 97.0732C171.43 97.9378 171.156 98.961 171.156 100.143H158.705C158.705 98.154 159.166 96.2662 160.089 94.4792C161.011 92.6922 162.351 91.1214 164.109 89.7668C165.867 88.3833 167.957 87.3025 170.378 86.5243C172.828 85.7461 175.566 85.357 178.592 85.357C182.224 85.357 185.452 85.9622 188.277 87.1728C191.101 88.3833 193.321 90.1991 194.935 92.6202C196.577 95.0412 197.399 98.0675 197.399 101.699V121.716C197.399 124.281 197.557 126.385 197.874 128.028C198.192 129.642 198.653 131.055 199.258 132.265V133H186.677C186.072 131.732 185.611 130.147 185.294 128.244C185.005 126.313 184.861 124.382 184.861 122.451ZM186.504 104.509L186.591 111.556H179.63C177.987 111.556 176.561 111.744 175.35 112.118C174.139 112.493 173.145 113.026 172.367 113.718C171.589 114.381 171.012 115.159 170.638 116.053C170.292 116.946 170.119 117.926 170.119 118.992C170.119 120.059 170.364 121.024 170.854 121.889C171.344 122.725 172.05 123.388 172.972 123.878C173.894 124.339 174.975 124.57 176.215 124.57C178.088 124.57 179.717 124.195 181.1 123.445C182.483 122.696 183.55 121.774 184.299 120.679C185.077 119.583 185.481 118.546 185.51 117.566L188.796 122.84C188.334 124.022 187.7 125.247 186.893 126.515C186.115 127.783 185.121 128.979 183.91 130.103C182.7 131.199 181.244 132.107 179.544 132.827C177.843 133.519 175.826 133.865 173.491 133.865C170.522 133.865 167.827 133.274 165.406 132.092C163.014 130.882 161.112 129.224 159.7 127.12C158.316 124.987 157.624 122.566 157.624 119.857C157.624 117.407 158.086 115.231 159.008 113.329C159.93 111.427 161.285 109.827 163.072 108.53C164.888 107.204 167.15 106.21 169.859 105.547C172.569 104.855 175.71 104.509 179.284 104.509H186.504Z" fill="#8A7EBE"/>
<path d="M249.754 95.6897V105.806H216.897V95.6897H249.754ZM220.745 70.0524V133H207.775V70.0524H220.745ZM259.006 70.0524V133H246.08V70.0524H259.006ZM297.181 121.803V86.2216H309.632V133H297.916L297.181 121.803ZM298.565 112.205L302.24 112.118C302.24 115.231 301.879 118.128 301.159 120.808C300.438 123.46 299.357 125.766 297.916 127.726C296.475 129.657 294.659 131.17 292.469 132.265C290.278 133.331 287.699 133.865 284.73 133.865C282.453 133.865 280.349 133.548 278.418 132.914C276.516 132.251 274.873 131.227 273.489 129.844C272.135 128.432 271.068 126.63 270.29 124.44C269.541 122.221 269.166 119.554 269.166 116.442V86.2216H281.617V116.528C281.617 117.912 281.776 119.079 282.093 120.03C282.439 120.981 282.914 121.759 283.52 122.365C284.125 122.97 284.831 123.402 285.638 123.662C286.474 123.921 287.396 124.051 288.405 124.051C290.97 124.051 292.988 123.532 294.458 122.494C295.956 121.457 297.008 120.044 297.614 118.257C298.248 116.442 298.565 114.424 298.565 112.205ZM319.144 66.5937H331.595V122.278L330.341 133H319.144V66.5937ZM361.21 109.135V110.043C361.21 113.531 360.835 116.73 360.086 119.641C359.365 122.552 358.241 125.074 356.713 127.207C355.186 129.311 353.284 130.954 351.007 132.135C348.758 133.288 346.107 133.865 343.052 133.865C340.198 133.865 337.72 133.288 335.616 132.135C333.54 130.982 331.797 129.354 330.384 127.25C328.972 125.146 327.834 122.682 326.969 119.857C326.104 117.033 325.456 113.949 325.023 110.605V108.616C325.456 105.273 326.104 102.189 326.969 99.3645C327.834 96.54 328.972 94.0757 330.384 91.9717C331.797 89.8676 333.54 88.2392 335.616 87.0863C337.691 85.9334 340.141 85.357 342.965 85.357C346.049 85.357 348.73 85.9478 351.007 87.1295C353.312 88.2824 355.215 89.9253 356.713 92.0581C358.241 94.1621 359.365 96.6697 360.086 99.5807C360.835 102.463 361.21 105.648 361.21 109.135ZM348.758 110.043V109.135C348.758 107.233 348.614 105.446 348.326 103.774C348.067 102.074 347.606 100.589 346.943 99.3213C346.28 98.0243 345.372 97.0011 344.219 96.2517C343.095 95.5024 341.639 95.1277 339.852 95.1277C338.152 95.1277 336.711 95.4159 335.529 95.9923C334.347 96.5688 333.367 97.3758 332.589 98.4134C331.84 99.451 331.278 100.69 330.903 102.131C330.528 103.544 330.298 105.1 330.211 106.801V112.464C330.298 114.741 330.673 116.759 331.336 118.517C332.027 120.246 333.065 121.615 334.448 122.624C335.861 123.604 337.691 124.094 339.939 124.094C341.697 124.094 343.153 123.748 344.305 123.056C345.458 122.365 346.352 121.385 346.986 120.116C347.649 118.848 348.11 117.364 348.369 115.663C348.629 113.934 348.758 112.061 348.758 110.043Z" fill="#F8B55F"/>
</svg>
